<svg xmlns="http://www.w3.org/2000/svg" width="240" height="240" viewBox="0 0 240 240" role="img" aria-label="Common Compute">
  <defs>
    <linearGradient id="g" x1="0%" y1="0%" x2="100%" y2="100%">
      <stop offset="0%" stop-color="#1ba3d9" />
      <stop offset="100%" stop-color="#12bcb0" />
    </linearGradient>
  </defs>
  <rect x="12" y="12" width="216" height="216" rx="48" fill="#0b1220" />
  <circle cx="120" cy="120" r="86" fill="url(#g)" />
  <path d="M88 120c0-19.9 14.6-36 32.6-36 9.5 0 17.9 4 24.4 10.4l16.4-14.1C150.5 69 136.4 63 120.6 63 88.6 63 63 89.5 63 121s25.6 58 57.6 58c15.8 0 29.9-6 40.8-17.3l-16.2-14.6c-6.5 6.7-14.9 10.9-24.6 10.9-18 0-32.6-16-32.6-36z" fill="#0b1220"/>
</svg>
